<?xml version="1.0" encoding="UTF-8"?>
<!DOCTYPE score-partwise PUBLIC "-//Recordare//DTD MusicXML 3.0 Partwise//EN" "http://www.musicxml.org/dtds/partwise.dtd">
<score-partwise>
  <movement-title>车尔尼599</movement-title>
  <identification>
    <encoding>
      <software>MuseScore 2.0.3</software>
      <encoding-date>2016-05-16</encoding-date>
      <supports element="accidental" type="yes"/>
      <supports element="beam" type="yes"/>
      <supports element="print" attribute="new-page" type="yes" value="yes"/>
      <supports element="print" attribute="new-system" type="yes" value="yes"/>
      <supports element="stem" type="yes"/>
      </encoding>
    </identification>
  <defaults>
    <scaling>
      <millimeters>7.05556</millimeters>
      <tenths>40</tenths>
      </scaling>
    <page-layout>
      <page-height>1683.78</page-height>
      <page-width>1190.55</page-width>
      <page-margins type="even">
        <left-margin>56.6929</left-margin>
        <right-margin>56.6929</right-margin>
        <top-margin>56.6929</top-margin>
        <bottom-margin>113.386</bottom-margin>
        </page-margins>
      <page-margins type="odd">
        <left-margin>56.6929</left-margin>
        <right-margin>56.6929</right-margin>
        <top-margin>56.6929</top-margin>
        <bottom-margin>113.386</bottom-margin>
        </page-margins>
      </page-layout>
    <word-font font-family="FreeSerif" font-size="10"/>
    <lyric-font font-family="FreeSerif" font-size="11"/>
    </defaults>
  <credit page="1">
    <credit-words default-x="595.276" default-y="1627.09" justify="center" valign="top" font-size="24">车尔尼599</credit-words>
    </credit>
  <part-list>
    <score-part id="P1">
      <part-name></part-name>
      <score-instrument id="P1-I1">
        <instrument-name></instrument-name>
        </score-instrument>
      <midi-device id="P1-I1" port="1"></midi-device>
      <midi-instrument id="P1-I1">
        <midi-channel>1</midi-channel>
        <midi-program>1</midi-program>
        <volume>78.7402</volume>
        <pan>0</pan>
        </midi-instrument>
      </score-part>
    </part-list>
  <part id="P1">
    <measure number="1" width="136.41">
      <print>
        <system-layout>
          <system-margins>
            <left-margin>21.00</left-margin>
            <right-margin>0.00</right-margin>
            </system-margins>
          <top-system-distance>170.00</top-system-distance>
          </system-layout>
        <staff-layout number="2">
          <staff-distance>65.00</staff-distance>
          </staff-layout>
        </print>
      <attributes>
        <divisions>1</divisions>
        <key>
          <fifths>0</fifths>
          </key>
        <time>
          <beats>4</beats>
          <beat-type>4</beat-type>
          </time>
        <staves>2</staves>
        <clef number="1">
          <sign>G</sign>
          <line>2</line>
          </clef>
        <clef number="2">
          <sign>G</sign>
          <line>2</line>
          </clef>
        </attributes>
      <direction placement="above">
        <direction-type>
          <metronome parentheses="no">
            <beat-unit>quarter</beat-unit>
            <per-minute>96</per-minute>
            </metronome>
          </direction-type>
        <staff>1</staff>
        <sound tempo="96"/>
        </direction>
      <note default-x="79.73" default-y="-30.00" dynamics="88.89">
        <pitch>
          <step>G</step>
          <octave>4</octave>
          </pitch>
        <duration>2</duration>
        <voice>1</voice>
        <type>half</type>
        <stem>up</stem>
        <staff>1</staff>
        <notations>
          <slur type="start" placement="above" number="1"/>
          </notations>
        </note>
      <note default-x="107.09" default-y="-20.00" dynamics="88.89">
        <pitch>
          <step>B</step>
          <octave>4</octave>
          </pitch>
        <duration>2</duration>
        <voice>1</voice>
        <type>half</type>
        <stem>down</stem>
        <staff>1</staff>
        </note>
      <backup>
        <duration>4</duration>
        </backup>
      <note default-x="76.78" default-y="-170.00" dynamics="88.89">
        <pitch>
          <step>G</step>
          <octave>3</octave>
          </pitch>
        <duration>4</duration>
        <voice>5</voice>
        <type>whole</type>
        <stem>none</stem>
        <staff>2</staff>
        </note>
      </measure>
    <measure number="2" width="78.32">
      <note default-x="14.96" default-y="-10.00" dynamics="88.89">
        <pitch>
          <step>D</step>
          <octave>5</octave>
          </pitch>
        <duration>2</duration>
        <voice>1</voice>
        <type>half</type>
        <stem>down</stem>
        <staff>1</staff>
        <notations>
          <slur type="stop" number="1"/>
          </notations>
        </note>
      <note default-x="45.66" default-y="-10.00" dynamics="88.89">
        <pitch>
          <step>D</step>
          <octave>5</octave>
          </pitch>
        <duration>2</duration>
        <voice>1</voice>
        <type>half</type>
        <stem>down</stem>
        <staff>1</staff>
        </note>
      <backup>
        <duration>4</duration>
        </backup>
      <note default-x="12.00" default-y="-170.00" dynamics="88.89">
        <pitch>
          <step>G</step>
          <octave>3</octave>
          </pitch>
        <duration>4</duration>
        <voice>5</voice>
        <type>whole</type>
        <stem>none</stem>
        <staff>2</staff>
        </note>
      </measure>
    <measure number="3" width="86.32">
      <note default-x="12.00" default-y="-10.00" dynamics="88.89">
        <pitch>
          <step>D</step>
          <octave>5</octave>
          </pitch>
        <duration>4</duration>
        <voice>1</voice>
        <type>whole</type>
        <stem>none</stem>
        <staff>1</staff>
        <notations>
          <slur type="start" placement="above" number="1"/>
          </notations>
        </note>
      <backup>
        <duration>4</duration>
        </backup>
      <note default-x="14.96" default-y="-170.00" dynamics="88.89">
        <pitch>
          <step>G</step>
          <octave>3</octave>
          </pitch>
        <duration>2</duration>
        <voice>5</voice>
        <type>half</type>
        <stem>up</stem>
        <staff>2</staff>
        <notations>
          <slur type="start" number="2"/>
          </notations>
        </note>
      <note default-x="49.66" default-y="-160.00" dynamics="88.89">
        <pitch>
          <step>B</step>
          <octave>3</octave>
          </pitch>
        <duration>2</duration>
        <voice>5</voice>
        <type>half</type>
        <stem>up</stem>
        <staff>2</staff>
        </note>
      </measure>
    <measure number="4" width="78.32">
      <note default-x="12.00" default-y="-20.00" dynamics="88.89">
        <pitch>
          <step>B</step>
          <octave>4</octave>
          </pitch>
        <duration>4</duration>
        <voice>1</voice>
        <type>whole</type>
        <stem>none</stem>
        <staff>1</staff>
        <notations>
          <slur type="stop" number="1"/>
          </notations>
        </note>
      <backup>
        <duration>4</duration>
        </backup>
      <note default-x="14.96" default-y="-150.00" dynamics="88.89">
        <pitch>
          <step>D</step>
          <octave>4</octave>
          </pitch>
        <duration>2</duration>
        <voice>5</voice>
        <type>half</type>
        <stem>up</stem>
        <staff>2</staff>
        <notations>
          <slur type="stop" number="2"/>
          </notations>
        </note>
      <note default-x="45.66" default-y="-150.00" dynamics="88.89">
        <pitch>
          <step>D</step>
          <octave>4</octave>
          </pitch>
        <duration>2</duration>
        <voice>5</voice>
        <type>half</type>
        <stem>up</stem>
        <staff>2</staff>
        </note>
      </measure>
    <measure number="5" width="78.32">
      <note default-x="14.96" default-y="-25.00" dynamics="88.89">
        <pitch>
          <step>A</step>
          <octave>4</octave>
          </pitch>
        <duration>2</duration>
        <voice>1</voice>
        <type>half</type>
        <stem>up</stem>
        <staff>1</staff>
        <notations>
          <slur type="start" placement="above" number="1"/>
          </notations>
        </note>
      <note default-x="45.66" default-y="-20.00" dynamics="88.89">
        <pitch>
          <step>B</step>
          <octave>4</octave>
          </pitch>
        <duration>2</duration>
        <voice>1</voice>
        <type>half</type>
        <stem>down</stem>
        <staff>1</staff>
        </note>
      <backup>
        <duration>4</duration>
        </backup>
      <note default-x="12.00" default-y="-150.00" dynamics="88.89">
        <pitch>
          <step>D</step>
          <octave>4</octave>
          </pitch>
        <duration>4</duration>
        <voice>5</voice>
        <type>whole</type>
        <stem>none</stem>
        <staff>2</staff>
        </note>
      </measure>
    <measure number="6" width="78.32">
      <note default-x="14.96" default-y="-15.00" dynamics="88.89">
        <pitch>
          <step>C</step>
          <octave>5</octave>
          </pitch>
        <duration>2</duration>
        <voice>1</voice>
        <type>half</type>
        <stem>down</stem>
        <staff>1</staff>
        </note>
      <note default-x="45.66" default-y="-25.00" dynamics="88.89">
        <pitch>
          <step>A</step>
          <octave>4</octave>
          </pitch>
        <duration>2</duration>
        <voice>1</voice>
        <type>half</type>
        <stem>up</stem>
        <staff>1</staff>
        </note>
      <backup>
        <duration>4</duration>
        </backup>
      <note default-x="12.00" default-y="-150.00" dynamics="88.89">
        <pitch>
          <step>D</step>
          <octave>4</octave>
          </pitch>
        <duration>4</duration>
        <voice>5</voice>
        <type>whole</type>
        <stem>none</stem>
        <staff>2</staff>
        </note>
      </measure>
    <measure number="7" width="86.32">
      <note default-x="12.00" default-y="-20.00" dynamics="88.89">
        <pitch>
          <step>B</step>
          <octave>4</octave>
          </pitch>
        <duration>2</duration>
        <voice>1</voice>
        <type>half</type>
        <stem>down</stem>
        <staff>1</staff>
        </note>
      <note default-x="48.18" default-y="-10.00" dynamics="88.89">
        <pitch>
          <step>D</step>
          <octave>5</octave>
          </pitch>
        <duration>2</duration>
        <voice>1</voice>
        <type>half</type>
        <stem>down</stem>
        <staff>1</staff>
        </note>
      <backup>
        <duration>4</duration>
        </backup>
      <note default-x="12.00" default-y="-170.00" dynamics="88.89">
        <pitch>
          <step>G</step>
          <octave>3</octave>
          </pitch>
        <duration>2</duration>
        <voice>5</voice>
        <type>half</type>
        <stem>up</stem>
        <staff>2</staff>
        <notations>
          <slur type="start" number="2"/>
          </notations>
        </note>
      <note default-x="48.18" default-y="-160.00" dynamics="88.89">
        <pitch>
          <step>B</step>
          <octave>3</octave>
          </pitch>
        <duration>2</duration>
        <voice>5</voice>
        <type>half</type>
        <stem>up</stem>
        <staff>2</staff>
        </note>
      </measure>
    <measure number="8" width="96.55">
      <note default-x="12.00" default-y="-30.00" dynamics="88.89">
        <pitch>
          <step>G</step>
          <octave>4</octave>
          </pitch>
        <duration>4</duration>
        <voice>1</voice>
        <type>whole</type>
        <stem>none</stem>
        <staff>1</staff>
        <notations>
          <slur type="stop" number="1"/>
          </notations>
        </note>
      <backup>
        <duration>4</duration>
        </backup>
      <note default-x="12.00" default-y="-170.00" dynamics="88.89">
        <pitch>
          <step>G</step>
          <octave>3</octave>
          </pitch>
        <duration>4</duration>
        <voice>5</voice>
        <type>whole</type>
        <stem>none</stem>
        <staff>2</staff>
        <notations>
          <slur type="stop" number="2"/>
          </notations>
        </note>
      <barline location="right">
        <bar-style>light-heavy</bar-style>
        <repeat direction="backward"/>
        </barline>
      </measure>
    <measure number="9" width="78.32">
      <barline location="left">
        <bar-style>heavy-light</bar-style>
        <repeat direction="forward"/>
        </barline>
      <note default-x="12.00" default-y="-25.00" dynamics="88.89">
        <pitch>
          <step>A</step>
          <octave>4</octave>
          </pitch>
        <duration>4</duration>
        <voice>1</voice>
        <type>whole</type>
        <stem>none</stem>
        <staff>1</staff>
        <notations>
          <slur type="start" placement="above" number="1"/>
          </notations>
        </note>
      <backup>
        <duration>4</duration>
        </backup>
      <note default-x="14.96" default-y="-150.00" dynamics="88.89">
        <pitch>
          <step>D</step>
          <octave>4</octave>
          </pitch>
        <duration>2</duration>
        <voice>5</voice>
        <type>half</type>
        <stem>up</stem>
        <staff>2</staff>
        <notations>
          <slur type="start" number="2"/>
          </notations>
        </note>
      <note default-x="45.66" default-y="-155.00" dynamics="88.89">
        <pitch>
          <step>C</step>
          <octave>4</octave>
          </pitch>
        <duration>2</duration>
        <voice>5</voice>
        <type>half</type>
        <stem>up</stem>
        <staff>2</staff>
        </note>
      </measure>
    <measure number="10" width="86.32">
      <note default-x="12.00" default-y="-30.00" dynamics="88.89">
        <pitch>
          <step>G</step>
          <octave>4</octave>
          </pitch>
        <duration>2</duration>
        <voice>1</voice>
        <type>half</type>
        <stem>up</stem>
        <staff>1</staff>
        </note>
      <note default-x="48.18" default-y="-25.00" dynamics="88.89">
        <pitch>
          <step>A</step>
          <octave>4</octave>
          </pitch>
        <duration>2</duration>
        <voice>1</voice>
        <type>half</type>
        <stem>up</stem>
        <staff>1</staff>
        </note>
      <backup>
        <duration>4</duration>
        </backup>
      <note default-x="12.00" default-y="-160.00" dynamics="88.89">
        <pitch>
          <step>B</step>
          <octave>3</octave>
          </pitch>
        <duration>2</duration>
        <voice>5</voice>
        <type>half</type>
        <stem>up</stem>
        <staff>2</staff>
        </note>
      <note default-x="48.18" default-y="-165.00" dynamics="88.89">
        <pitch>
          <step>A</step>
          <octave>3</octave>
          </pitch>
        <duration>2</duration>
        <voice>5</voice>
        <type>half</type>
        <stem>up</stem>
        <staff>2</staff>
        </note>
      </measure>
    <measure number="11" width="86.32">
      <note default-x="12.00" default-y="-20.00" dynamics="88.89">
        <pitch>
          <step>B</step>
          <octave>4</octave>
          </pitch>
        <duration>2</duration>
        <voice>1</voice>
        <type>half</type>
        <stem>down</stem>
        <staff>1</staff>
        </note>
      <note default-x="48.18" default-y="-15.00" dynamics="88.89">
        <pitch>
          <step>C</step>
          <octave>5</octave>
          </pitch>
        <duration>2</duration>
        <voice>1</voice>
        <type>half</type>
        <stem>down</stem>
        <staff>1</staff>
        </note>
      <backup>
        <duration>4</duration>
        </backup>
      <note default-x="12.00" default-y="-170.00" dynamics="88.89">
        <pitch>
          <step>G</step>
          <octave>3</octave>
          </pitch>
        <duration>2</duration>
        <voice>5</voice>
        <type>half</type>
        <stem>up</stem>
        <staff>2</staff>
        </note>
      <note default-x="48.18" default-y="-165.00" dynamics="88.89">
        <pitch>
          <step>A</step>
          <octave>3</octave>
          </pitch>
        <duration>2</duration>
        <voice>5</voice>
        <type>half</type>
        <stem>up</stem>
        <staff>2</staff>
        </note>
      </measure>
    <measure number="12" width="86.32">
      <note default-x="12.00" default-y="-10.00" dynamics="88.89">
        <pitch>
          <step>D</step>
          <octave>5</octave>
          </pitch>
        <duration>4</duration>
        <voice>1</voice>
        <type>whole</type>
        <stem>none</stem>
        <staff>1</staff>
        <notations>
          <slur type="stop" number="1"/>
          </notations>
        </note>
      <backup>
        <duration>4</duration>
        </backup>
      <note default-x="14.96" default-y="-160.00" dynamics="88.89">
        <pitch>
          <step>B</step>
          <octave>3</octave>
          </pitch>
        <duration>2</duration>
        <voice>5</voice>
        <type>half</type>
        <stem>up</stem>
        <staff>2</staff>
        </note>
      <note default-x="49.66" default-y="-170.00" dynamics="88.89">
        <pitch>
          <step>G</step>
          <octave>3</octave>
          </pitch>
        <duration>2</duration>
        <voice>5</voice>
        <type>half</type>
        <stem>up</stem>
        <staff>2</staff>
        <notations>
          <slur type="stop" number="2"/>
          </notations>
        </note>
      </measure>
    <measure number="13" width="113.33">
      <print new-system="yes">
        <system-layout>
          <system-margins>
            <left-margin>21.00</left-margin>
            <right-margin>0.00</right-margin>
            </system-margins>
          <system-distance>150.00</system-distance>
          </system-layout>
        <staff-layout number="2">
          <staff-distance>65.00</staff-distance>
          </staff-layout>
        </print>
      <note default-x="53.63" default-y="-10.00" dynamics="88.89">
        <pitch>
          <step>D</step>
          <octave>5</octave>
          </pitch>
        <duration>2</duration>
        <voice>1</voice>
        <type>half</type>
        <stem>down</stem>
        <staff>1</staff>
        <notations>
          <slur type="start" placement="above" number="1"/>
          </notations>
        </note>
      <note default-x="82.50" default-y="-20.00" dynamics="88.89">
        <pitch>
          <step>B</step>
          <octave>4</octave>
          </pitch>
        <duration>2</duration>
        <voice>1</voice>
        <type>half</type>
        <stem>down</stem>
        <staff>1</staff>
        </note>
      <backup>
        <duration>4</duration>
        </backup>
      <note default-x="50.67" default-y="-150.00" dynamics="88.89">
        <pitch>
          <step>D</step>
          <octave>4</octave>
          </pitch>
        <duration>4</duration>
        <voice>5</voice>
        <type>whole</type>
        <stem>none</stem>
        <staff>2</staff>
        </note>
      </measure>
    <measure number="14" width="81.33">
      <note default-x="14.96" default-y="-15.00" dynamics="88.89">
        <pitch>
          <step>C</step>
          <octave>5</octave>
          </pitch>
        <duration>2</duration>
        <voice>1</voice>
        <type>half</type>
        <stem>down</stem>
        <staff>1</staff>
        </note>
      <note default-x="47.16" default-y="-25.00" dynamics="88.89">
        <pitch>
          <step>A</step>
          <octave>4</octave>
          </pitch>
        <duration>2</duration>
        <voice>1</voice>
        <type>half</type>
        <stem>up</stem>
        <staff>1</staff>
        </note>
      <backup>
        <duration>4</duration>
        </backup>
      <note default-x="12.00" default-y="-150.00" dynamics="88.89">
        <pitch>
          <step>D</step>
          <octave>4</octave>
          </pitch>
        <duration>4</duration>
        <voice>5</voice>
        <type>whole</type>
        <stem>none</stem>
        <staff>2</staff>
        </note>
      </measure>
    <measure number="15" width="89.33">
      <note default-x="12.00" default-y="-20.00" dynamics="88.89">
        <pitch>
          <step>B</step>
          <octave>4</octave>
          </pitch>
        <duration>2</duration>
        <voice>1</voice>
        <type>half</type>
        <stem>down</stem>
        <staff>1</staff>
        </note>
      <note default-x="49.68" default-y="-30.00" dynamics="88.89">
        <pitch>
          <step>G</step>
          <octave>4</octave>
          </pitch>
        <duration>2</duration>
        <voice>1</voice>
        <type>half</type>
        <stem>up</stem>
        <staff>1</staff>
        <notations>
          <slur type="stop" number="1"/>
          </notations>
        </note>
      <backup>
        <duration>4</duration>
        </backup>
      <note default-x="12.00" default-y="-170.00" dynamics="88.89">
        <pitch>
          <step>G</step>
          <octave>3</octave>
          </pitch>
        <duration>2</duration>
        <voice>5</voice>
        <type>half</type>
        <stem>up</stem>
        <staff>2</staff>
        <notations>
          <slur type="start" number="1"/>
          </notations>
        </note>
      <note default-x="49.68" default-y="-160.00" dynamics="88.89">
        <pitch>
          <step>B</step>
          <octave>3</octave>
          </pitch>
        <duration>2</duration>
        <voice>5</voice>
        <type>half</type>
        <stem>up</stem>
        <staff>2</staff>
        </note>
      </measure>
    <measure number="16" width="85.43">
      <note default-x="12.00" default-y="-30.00" dynamics="88.89">
        <pitch>
          <step>G</step>
          <octave>4</octave>
          </pitch>
        <duration>4</duration>
        <voice>1</voice>
        <type>whole</type>
        <stem>none</stem>
        <staff>1</staff>
        </note>
      <backup>
        <duration>4</duration>
        </backup>
      <note default-x="12.00" default-y="-170.00" dynamics="88.89">
        <pitch>
          <step>G</step>
          <octave>3</octave>
          </pitch>
        <duration>4</duration>
        <voice>5</voice>
        <type>whole</type>
        <stem>none</stem>
        <staff>2</staff>
        <notations>
          <slur type="stop" number="1"/>
          </notations>
        </note>
      <barline location="right">
        <bar-style>light-heavy</bar-style>
        <repeat direction="backward"/>
        </barline>
      </measure>
    <measure number="17" width="89.33">
      <note default-x="12.00" default-y="20.00" dynamics="88.89">
        <pitch>
          <step>C</step>
          <octave>6</octave>
          </pitch>
        <duration>2</duration>
        <voice>1</voice>
        <type>half</type>
        <stem>down</stem>
        <staff>1</staff>
        <notations>
          <slur type="start" placement="above" number="1"/>
          </notations>
        </note>
      <note default-x="49.68" default-y="25.00" dynamics="88.89">
        <pitch>
          <step>D</step>
          <octave>6</octave>
          </pitch>
        <duration>2</duration>
        <voice>1</voice>
        <type>half</type>
        <stem>down</stem>
        <staff>1</staff>
        </note>
      <backup>
        <duration>4</duration>
        </backup>
      <note default-x="12.00" default-y="-145.00" dynamics="88.89">
        <pitch>
          <step>E</step>
          <octave>4</octave>
          </pitch>
        <duration>2</duration>
        <voice>5</voice>
        <type>half</type>
        <stem>up</stem>
        <staff>2</staff>
        <notations>
          <slur type="start" number="2"/>
          </notations>
        </note>
      <note default-x="49.68" default-y="-135.00" dynamics="88.89">
        <pitch>
          <step>G</step>
          <octave>4</octave>
          </pitch>
        <duration>2</duration>
        <voice>5</voice>
        <type>half</type>
        <stem>up</stem>
        <staff>2</staff>
        </note>
      </measure>
    <measure number="18" width="81.33">
      <note default-x="12.00" default-y="30.00" dynamics="88.89">
        <pitch>
          <step>E</step>
          <octave>6</octave>
          </pitch>
        <duration>4</duration>
        <voice>1</voice>
        <type>whole</type>
        <stem>none</stem>
        <staff>1</staff>
        <notations>
          <slur type="stop" number="1"/>
          </notations>
        </note>
      <backup>
        <duration>4</duration>
        </backup>
      <note default-x="14.96" default-y="-155.00" dynamics="88.89">
        <pitch>
          <step>C</step>
          <octave>4</octave>
          </pitch>
        <duration>2</duration>
        <voice>5</voice>
        <type>half</type>
        <stem>up</stem>
        <staff>2</staff>
        </note>
      <note default-x="47.16" default-y="-135.00" dynamics="88.89">
        <pitch>
          <step>G</step>
          <octave>4</octave>
          </pitch>
        <duration>2</duration>
        <voice>5</voice>
        <type>half</type>
        <stem>up</stem>
        <staff>2</staff>
        </note>
      </measure>
    <measure number="19" width="89.33">
      <note default-x="12.00" default-y="20.00" dynamics="88.89">
        <pitch>
          <step>C</step>
          <octave>6</octave>
          </pitch>
        <duration>2</duration>
        <voice>1</voice>
        <type>half</type>
        <stem>down</stem>
        <staff>1</staff>
        <notations>
          <slur type="start" placement="above" number="1"/>
          </notations>
        </note>
      <note default-x="49.68" default-y="25.00" dynamics="88.89">
        <pitch>
          <step>D</step>
          <octave>6</octave>
          </pitch>
        <duration>2</duration>
        <voice>1</voice>
        <type>half</type>
        <stem>down</stem>
        <staff>1</staff>
        </note>
      <backup>
        <duration>4</duration>
        </backup>
      <note default-x="12.00" default-y="-145.00" dynamics="88.89">
        <pitch>
          <step>E</step>
          <octave>4</octave>
          </pitch>
        <duration>2</duration>
        <voice>5</voice>
        <type>half</type>
        <stem>up</stem>
        <staff>2</staff>
        </note>
      <note default-x="49.68" default-y="-135.00" dynamics="88.89">
        <pitch>
          <step>G</step>
          <octave>4</octave>
          </pitch>
        <duration>2</duration>
        <voice>5</voice>
        <type>half</type>
        <stem>up</stem>
        <staff>2</staff>
        </note>
      </measure>
    <measure number="20" width="81.33">
      <note default-x="12.00" default-y="30.00" dynamics="88.89">
        <pitch>
          <step>E</step>
          <octave>6</octave>
          </pitch>
        <duration>4</duration>
        <voice>1</voice>
        <type>whole</type>
        <stem>none</stem>
        <staff>1</staff>
        <notations>
          <slur type="stop" number="1"/>
          </notations>
        </note>
      <backup>
        <duration>4</duration>
        </backup>
      <note default-x="14.96" default-y="-155.00" dynamics="88.89">
        <pitch>
          <step>C</step>
          <octave>4</octave>
          </pitch>
        <duration>2</duration>
        <voice>5</voice>
        <type>half</type>
        <stem>up</stem>
        <staff>2</staff>
        </note>
      <note default-x="47.16" default-y="-135.00" dynamics="88.89">
        <pitch>
          <step>G</step>
          <octave>4</octave>
          </pitch>
        <duration>2</duration>
        <voice>5</voice>
        <type>half</type>
        <stem>up</stem>
        <staff>2</staff>
        <notations>
          <slur type="stop" number="2"/>
          </notations>
        </note>
      </measure>
    <measure number="21" width="89.33">
      <note default-x="12.00" default-y="35.00" dynamics="88.89">
        <pitch>
          <step>F</step>
          <octave>6</octave>
          </pitch>
        <duration>2</duration>
        <voice>1</voice>
        <type>half</type>
        <stem>down</stem>
        <staff>1</staff>
        </note>
      <note default-x="49.68" default-y="35.00" dynamics="88.89">
        <pitch>
          <step>F</step>
          <octave>6</octave>
          </pitch>
        <duration>2</duration>
        <voice>1</voice>
        <type>half</type>
        <stem>down</stem>
        <staff>1</staff>
        <notations>
          <slur type="start" placement="above" number="1"/>
          </notations>
        </note>
      <backup>
        <duration>4</duration>
        </backup>
      <note default-x="12.00" default-y="-150.00" dynamics="88.89">
        <pitch>
          <step>D</step>
          <octave>4</octave>
          </pitch>
        <duration>2</duration>
        <voice>5</voice>
        <type>half</type>
        <stem>up</stem>
        <staff>2</staff>
        <notations>
          <slur type="start" number="2"/>
          </notations>
        </note>
      <note default-x="49.68" default-y="-135.00" dynamics="88.89">
        <pitch>
          <step>G</step>
          <octave>4</octave>
          </pitch>
        <duration>2</duration>
        <voice>5</voice>
        <type>half</type>
        <stem>up</stem>
        <staff>2</staff>
        </note>
      </measure>
    <measure number="22" width="89.33">
      <note default-x="12.00" default-y="40.00" dynamics="88.89">
        <pitch>
          <step>G</step>
          <octave>6</octave>
          </pitch>
        <duration>2</duration>
        <voice>1</voice>
        <type>half</type>
        <stem>down</stem>
        <staff>1</staff>
        </note>
      <note default-x="49.68" default-y="35.00" dynamics="88.89">
        <pitch>
          <step>F</step>
          <octave>6</octave>
          </pitch>
        <duration>2</duration>
        <voice>1</voice>
        <type>half</type>
        <stem>down</stem>
        <staff>1</staff>
        </note>
      <backup>
        <duration>4</duration>
        </backup>
      <note default-x="12.00" default-y="-150.00" dynamics="88.89">
        <pitch>
          <step>D</step>
          <octave>4</octave>
          </pitch>
        <duration>2</duration>
        <voice>5</voice>
        <type>half</type>
        <stem>up</stem>
        <staff>2</staff>
        </note>
      <note default-x="49.68" default-y="-135.00" dynamics="88.89">
        <pitch>
          <step>G</step>
          <octave>4</octave>
          </pitch>
        <duration>2</duration>
        <voice>5</voice>
        <type>half</type>
        <stem>up</stem>
        <staff>2</staff>
        </note>
      </measure>
    <measure number="23" width="81.33">
      <note default-x="12.00" default-y="30.00" dynamics="88.89">
        <pitch>
          <step>E</step>
          <octave>6</octave>
          </pitch>
        <duration>4</duration>
        <voice>1</voice>
        <type>whole</type>
        <stem>none</stem>
        <staff>1</staff>
        </note>
      <backup>
        <duration>4</duration>
        </backup>
      <note default-x="14.96" default-y="-155.00" dynamics="88.89">
        <pitch>
          <step>C</step>
          <octave>4</octave>
          </pitch>
        <duration>2</duration>
        <voice>5</voice>
        <type>half</type>
        <stem>up</stem>
        <staff>2</staff>
        </note>
      <note default-x="47.16" default-y="-135.00" dynamics="88.89">
        <pitch>
          <step>G</step>
          <octave>4</octave>
          </pitch>
        <duration>2</duration>
        <voice>5</voice>
        <type>half</type>
        <stem>up</stem>
        <staff>2</staff>
        </note>
      </measure>
    <measure number="24" width="85.43">
      <note default-x="12.00" default-y="20.00" dynamics="88.89">
        <pitch>
          <step>C</step>
          <octave>6</octave>
          </pitch>
        <duration>4</duration>
        <voice>1</voice>
        <type>whole</type>
        <stem>none</stem>
        <staff>1</staff>
        <notations>
          <slur type="stop" number="1"/>
          </notations>
        </note>
      <backup>
        <duration>4</duration>
        </backup>
      <note default-x="12.00" default-y="-145.00" dynamics="88.89">
        <pitch>
          <step>E</step>
          <octave>4</octave>
          </pitch>
        <duration>4</duration>
        <voice>5</voice>
        <type>whole</type>
        <stem>none</stem>
        <staff>2</staff>
        <notations>
          <slur type="stop" number="2"/>
          </notations>
        </note>
      <barline location="right">
        <bar-style>light-heavy</bar-style>
        <repeat direction="backward"/>
        </barline>
      </measure>
    <measure number="25" width="159.98">
      <print new-system="yes">
        <system-layout>
          <system-margins>
            <left-margin>21.00</left-margin>
            <right-margin>0.00</right-margin>
            </system-margins>
          <system-distance>150.00</system-distance>
          </system-layout>
        <staff-layout number="2">
          <staff-distance>65.00</staff-distance>
          </staff-layout>
        </print>
      <note default-x="50.67" default-y="25.00" dynamics="88.89">
        <pitch>
          <step>D</step>
          <octave>6</octave>
          </pitch>
        <duration>2</duration>
        <voice>1</voice>
        <type>half</type>
        <stem>down</stem>
        <staff>1</staff>
        </note>
      <note default-x="104.35" default-y="25.00" dynamics="88.89">
        <pitch>
          <step>D</step>
          <octave>6</octave>
          </pitch>
        <duration>2</duration>
        <voice>1</voice>
        <type>half</type>
        <stem>down</stem>
        <staff>1</staff>
        <notations>
          <slur type="start" placement="above" number="1"/>
          </notations>
        </note>
      <backup>
        <duration>4</duration>
        </backup>
      <note default-x="50.67" default-y="-135.00" dynamics="88.89">
        <pitch>
          <step>G</step>
          <octave>4</octave>
          </pitch>
        <duration>2</duration>
        <voice>5</voice>
        <type>half</type>
        <stem>up</stem>
        <staff>2</staff>
        <notations>
          <slur type="start" number="2"/>
          </notations>
        </note>
      <note default-x="104.35" default-y="-140.00" dynamics="88.89">
        <pitch>
          <step>F</step>
          <octave>4</octave>
          </pitch>
        <duration>2</duration>
        <voice>5</voice>
        <type>half</type>
        <stem>up</stem>
        <staff>2</staff>
        </note>
      </measure>
    <measure number="26" width="130.94">
      <note default-x="12.00" default-y="30.00" dynamics="88.89">
        <pitch>
          <step>E</step>
          <octave>6</octave>
          </pitch>
        <duration>2</duration>
        <voice>1</voice>
        <type>half</type>
        <stem>down</stem>
        <staff>1</staff>
        </note>
      <note default-x="70.49" default-y="35.00" dynamics="88.89">
        <pitch>
          <step>F</step>
          <octave>6</octave>
          </pitch>
        <duration>2</duration>
        <voice>1</voice>
        <type>half</type>
        <stem>down</stem>
        <staff>1</staff>
        </note>
      <backup>
        <duration>4</duration>
        </backup>
      <note default-x="12.00" default-y="-145.00" dynamics="88.89">
        <pitch>
          <step>E</step>
          <octave>4</octave>
          </pitch>
        <duration>2</duration>
        <voice>5</voice>
        <type>half</type>
        <stem>up</stem>
        <staff>2</staff>
        </note>
      <note default-x="70.49" default-y="-150.00" dynamics="88.89">
        <pitch>
          <step>D</step>
          <octave>4</octave>
          </pitch>
        <duration>2</duration>
        <voice>5</voice>
        <type>half</type>
        <stem>up</stem>
        <staff>2</staff>
        </note>
      </measure>
    <measure number="27" width="130.94">
      <note default-x="12.00" default-y="40.00" dynamics="88.89">
        <pitch>
          <step>G</step>
          <octave>6</octave>
          </pitch>
        <duration>2</duration>
        <voice>1</voice>
        <type>half</type>
        <stem>down</stem>
        <staff>1</staff>
        </note>
      <note default-x="70.49" default-y="25.00" dynamics="88.89">
        <pitch>
          <step>D</step>
          <octave>6</octave>
          </pitch>
        <duration>2</duration>
        <voice>1</voice>
        <type>half</type>
        <stem>down</stem>
        <staff>1</staff>
        </note>
      <backup>
        <duration>4</duration>
        </backup>
      <note default-x="12.00" default-y="-155.00" dynamics="88.89">
        <pitch>
          <step>C</step>
          <octave>4</octave>
          </pitch>
        <duration>2</duration>
        <voice>5</voice>
        <type>half</type>
        <stem>up</stem>
        <staff>2</staff>
        </note>
      <note default-x="70.49" default-y="-135.00" dynamics="88.89">
        <pitch>
          <step>G</step>
          <octave>4</octave>
          </pitch>
        <duration>2</duration>
        <voice>5</voice>
        <type>half</type>
        <stem>up</stem>
        <staff>2</staff>
        </note>
      </measure>
    <measure number="28" width="122.94">
      <note default-x="12.00" default-y="20.00" dynamics="88.89">
        <pitch>
          <step>C</step>
          <octave>6</octave>
          </pitch>
        <duration>4</duration>
        <voice>1</voice>
        <type>whole</type>
        <stem>none</stem>
        <staff>1</staff>
        <notations>
          <slur type="stop" number="1"/>
          </notations>
        </note>
      <backup>
        <duration>4</duration>
        </backup>
      <note default-x="14.96" default-y="-145.00" dynamics="88.89">
        <pitch>
          <step>E</step>
          <octave>4</octave>
          </pitch>
        <duration>2</duration>
        <voice>5</voice>
        <type>half</type>
        <stem>up</stem>
        <staff>2</staff>
        </note>
      <note default-x="67.97" default-y="-155.00" dynamics="88.89">
        <pitch>
          <step>C</step>
          <octave>4</octave>
          </pitch>
        <duration>2</duration>
        <voice>5</voice>
        <type>half</type>
        <stem>up</stem>
        <staff>2</staff>
        <notations>
          <slur type="stop" number="2"/>
          </notations>
        </note>
      </measure>
    <measure number="29" width="130.94">
      <note default-x="14.96" default-y="25.00" dynamics="88.89">
        <pitch>
          <step>D</step>
          <octave>6</octave>
          </pitch>
        <duration>2</duration>
        <voice>1</voice>
        <type>half</type>
        <stem>down</stem>
        <staff>1</staff>
        </note>
      <note default-x="71.97" default-y="25.00" dynamics="88.89">
        <pitch>
          <step>D</step>
          <octave>6</octave>
          </pitch>
        <duration>2</duration>
        <voice>1</voice>
        <type>half</type>
        <stem>down</stem>
        <staff>1</staff>
        <notations>
          <slur type="start" placement="above" number="1"/>
          </notations>
        </note>
      <backup>
        <duration>4</duration>
        </backup>
      <note default-x="12.00" default-y="-135.00" dynamics="88.89">
        <pitch>
          <step>G</step>
          <octave>4</octave>
          </pitch>
        <duration>4</duration>
        <voice>5</voice>
        <type>whole</type>
        <stem>none</stem>
        <staff>2</staff>
        </note>
      </measure>
    <measure number="30" width="130.94">
      <note default-x="14.96" default-y="35.00" dynamics="88.89">
        <pitch>
          <step>F</step>
          <octave>6</octave>
          </pitch>
        <duration>2</duration>
        <voice>1</voice>
        <type>half</type>
        <stem>down</stem>
        <staff>1</staff>
        </note>
      <note default-x="71.97" default-y="25.00" dynamics="88.89">
        <pitch>
          <step>D</step>
          <octave>6</octave>
          </pitch>
        <duration>2</duration>
        <voice>1</voice>
        <type>half</type>
        <stem>down</stem>
        <staff>1</staff>
        </note>
      <backup>
        <duration>4</duration>
        </backup>
      <note default-x="12.00" default-y="-135.00" dynamics="88.89">
        <pitch>
          <step>G</step>
          <octave>4</octave>
          </pitch>
        <duration>4</duration>
        <voice>5</voice>
        <type>whole</type>
        <stem>none</stem>
        <staff>2</staff>
        </note>
      </measure>
    <measure number="31" width="130.94">
      <note default-x="14.96" default-y="20.00" dynamics="88.89">
        <pitch>
          <step>C</step>
          <octave>6</octave>
          </pitch>
        <duration>2</duration>
        <voice>1</voice>
        <type>half</type>
        <stem>down</stem>
        <staff>1</staff>
        </note>
      <note default-x="71.97" default-y="30.00" dynamics="88.89">
        <pitch>
          <step>E</step>
          <octave>6</octave>
          </pitch>
        <duration>2</duration>
        <voice>1</voice>
        <type>half</type>
        <stem>down</stem>
        <staff>1</staff>
        </note>
      <backup>
        <duration>4</duration>
        </backup>
      <note default-x="12.00" default-y="-155.00" dynamics="88.89">
        <pitch>
          <step>C</step>
          <octave>4</octave>
          </pitch>
        <duration>4</duration>
        <voice>5</voice>
        <type>whole</type>
        <stem>none</stem>
        <staff>2</staff>
        </note>
      </measure>
    <measure number="32" width="118.52">
      <note default-x="12.00" default-y="20.00" dynamics="88.89">
        <pitch>
          <step>C</step>
          <octave>6</octave>
          </pitch>
        <duration>4</duration>
        <voice>1</voice>
        <type>whole</type>
        <stem>none</stem>
        <staff>1</staff>
        <notations>
          <slur type="stop" number="1"/>
          </notations>
        </note>
      <backup>
        <duration>4</duration>
        </backup>
      <note default-x="12.00" default-y="-155.00" dynamics="88.89">
        <pitch>
          <step>C</step>
          <octave>4</octave>
          </pitch>
        <duration>4</duration>
        <voice>5</voice>
        <type>whole</type>
        <stem>none</stem>
        <staff>2</staff>
        </note>
      <barline location="right">
        <bar-style>light-heavy</bar-style>
        </barline>
      </measure>
    </part>
  </score-partwise>
